<svg xmlns="http://www.w3.org/2000/svg" xmlns:xlink="http://www.w3.org/1999/xlink" width="417" zoomAndPan="magnify" viewBox="0 0 312.75 136.499996" height="182" preserveAspectRatio="xMidYMid meet" version="1.0"><defs><g/><clipPath id="419b7373f4"><path d="M 58 35 L 103 35 L 103 58 L 58 58 Z M 58 35 " clip-rule="nonzero"/></clipPath><clipPath id="8abe83bb9c"><path d="M 30.375 0 L 158.667969 40.40625 L 128.8125 135.203125 L 0.519531 94.796875 Z M 30.375 0 " clip-rule="nonzero"/></clipPath><clipPath id="bc6d7600ac"><path d="M 30.375 0 L 158.667969 40.40625 L 128.8125 135.203125 L 0.519531 94.796875 Z M 30.375 0 " clip-rule="nonzero"/></clipPath><clipPath id="b0db7df676"><path d="M 34 14 L 59 14 L 59 49 L 34 49 Z M 34 14 " clip-rule="nonzero"/></clipPath><clipPath id="b9f35e4ffd"><path d="M 30.375 0 L 158.667969 40.40625 L 128.8125 135.203125 L 0.519531 94.796875 Z M 30.375 0 " clip-rule="nonzero"/></clipPath><clipPath id="31e45b2fb8"><path d="M 30.375 0 L 158.667969 40.40625 L 128.8125 135.203125 L 0.519531 94.796875 Z M 30.375 0 " clip-rule="nonzero"/></clipPath><clipPath id="ec8dd1ce04"><path d="M 61 15 L 82 15 L 82 36 L 61 36 Z M 61 15 " clip-rule="nonzero"/></clipPath><clipPath id="9b8ac335bb"><path d="M 30.375 0 L 158.667969 40.40625 L 128.8125 135.203125 L 0.519531 94.796875 Z M 30.375 0 " clip-rule="nonzero"/></clipPath><clipPath id="3e9c0aa437"><path d="M 30.375 0 L 158.667969 40.40625 L 128.8125 135.203125 L 0.519531 94.796875 Z M 30.375 0 " clip-rule="nonzero"/></clipPath><clipPath id="d5c846f49f"><path d="M 18 41 L 84 41 L 84 98 L 18 98 Z M 18 41 " clip-rule="nonzero"/></clipPath><clipPath id="bfefa5bc18"><path d="M 30.375 0 L 158.667969 40.40625 L 128.8125 135.203125 L 0.519531 94.796875 Z M 30.375 0 " clip-rule="nonzero"/></clipPath><clipPath id="2dfe8e7571"><path d="M 30.375 0 L 158.667969 40.40625 L 128.8125 135.203125 L 0.519531 94.796875 Z M 30.375 0 " clip-rule="nonzero"/></clipPath><clipPath id="1c28c7d33e"><path d="M 5 57 L 144 57 L 144 111 L 5 111 Z M 5 57 " clip-rule="nonzero"/></clipPath><clipPath id="b76044fc5b"><path d="M 30.375 0 L 158.667969 40.40625 L 128.8125 135.203125 L 0.519531 94.796875 Z M 30.375 0 " clip-rule="nonzero"/></clipPath><clipPath id="7fbd373872"><path d="M 30.375 0 L 158.667969 40.40625 L 128.8125 135.203125 L 0.519531 94.796875 Z M 30.375 0 " clip-rule="nonzero"/></clipPath><clipPath id="dfc49137ae"><path d="M 15.566406 47.066406 L 143.839844 87.464844 L 128.734375 135.425781 L 0.460938 95.023438 Z M 15.566406 47.066406 " clip-rule="nonzero"/></clipPath></defs><g clip-path="url(#419b7373f4)"><g clip-path="url(#8abe83bb9c)"><g clip-path="url(#bc6d7600ac)"><path fill="#fbfbfb" d="M 65.972656 44.957031 C 73.066406 43.414062 80.335938 42.9375 86.996094 43.585938 L 94.207031 44.289062 C 94.207031 44.289062 70.023438 43.144531 60.203125 53.351562 C 63.292969 55.71875 68.699219 58.675781 75.71875 57.789062 C 87.027344 56.363281 90.273438 47.511719 102.152344 48.175781 C 102.152344 48.175781 98.832031 42.757812 92.144531 38.664062 C 83.023438 33.074219 71.269531 33.953125 63.335938 41.128906 C 61.597656 42.703125 60.011719 44.605469 58.800781 46.902344 C 61.121094 46.144531 63.519531 45.492188 65.972656 44.957031 " fill-opacity="1" fill-rule="nonzero"/></g></g></g><g clip-path="url(#b0db7df676)"><g clip-path="url(#b9f35e4ffd)"><g clip-path="url(#31e45b2fb8)"><path fill="#fbfbfb" d="M 43.980469 43.539062 C 47.71875 38.566406 50.683594 33.070312 52.558594 27.652344 L 54.589844 21.785156 C 54.589844 21.785156 46.839844 41.03125 35.382812 45.035156 C 34.640625 41.78125 34.269531 36.515625 37.464844 31.363281 C 42.617188 23.0625 50.671875 23.699219 54.398438 14.207031 C 54.398438 14.207031 57.433594 18.726562 58.234375 25.398438 C 59.328125 34.503906 54.445312 43.34375 46.019531 46.960938 C 44.175781 47.753906 42.125 48.308594 39.902344 48.433594 C 41.324219 46.894531 42.6875 45.261719 43.980469 43.539062 " fill-opacity="1" fill-rule="nonzero"/></g></g></g><g clip-path="url(#ec8dd1ce04)"><g clip-path="url(#9b8ac335bb)"><g clip-path="url(#3e9c0aa437)"><path fill="#fbfbfb" d="M 64.230469 29.300781 C 66.710938 25.753906 69.703125 22.601562 72.882812 20.191406 L 76.328125 17.578125 C 76.328125 17.578125 65.273438 26.867188 65.101562 35.3125 C 67.414062 35.101562 70.976562 34.207031 73.695312 30.976562 C 78.070312 25.773438 75.90625 20.585938 81.382812 16.066406 C 81.382812 16.066406 77.734375 15.039062 73.144531 15.949219 C 66.886719 17.195312 62.097656 22.335938 61.527344 28.691406 C 61.402344 30.085938 61.476562 31.5625 61.875 33.058594 C 62.585938 31.785156 63.371094 30.53125 64.230469 29.300781 " fill-opacity="1" fill-rule="nonzero"/></g></g></g><g clip-path="url(#d5c846f49f)"><g clip-path="url(#bfefa5bc18)"><g clip-path="url(#2dfe8e7571)"><path fill="#fbfbfb" d="M 28.886719 75.882812 C 27.296875 60.902344 48.109375 46.414062 75.367188 43.527344 C 78.011719 43.246094 80.621094 43.085938 83.175781 43.035156 C 76.601562 41.664062 69.21875 41.273438 61.507812 42.089844 C 36.429688 44.746094 17.402344 59.183594 19.007812 74.335938 C 20.441406 87.882812 37.886719 97.414062 59.492188 97.382812 C 42.457031 94.761719 30.027344 86.664062 28.886719 75.882812 " fill-opacity="1" fill-rule="nonzero"/></g></g></g><g clip-path="url(#1c28c7d33e)"><g clip-path="url(#b76044fc5b)"><g clip-path="url(#7fbd373872)"><g clip-path="url(#dfc49137ae)"><path fill="#fbfbfb" d="M 89.082031 104.230469 C 48.664062 107.617188 14.613281 95.011719 13.027344 76.082031 C 12.5 69.777344 15.640625 63.5625 21.558594 57.957031 C 11.195312 64.847656 5.285156 73.148438 5.996094 81.617188 C 7.582031 100.546875 41.632812 113.148438 82.050781 109.765625 C 109.007812 107.503906 131.988281 98.707031 143.835938 87.476562 C 131.03125 95.992188 111.421875 102.355469 89.082031 104.230469 " fill-opacity="1" fill-rule="nonzero"/></g></g></g></g><g fill="#fbfbfb" fill-opacity="1"><g transform="translate(41.690993, 85.762792)"><g><path d="M 2.75 0 C 3.175781 -1.394531 3.390625 -3.289062 3.390625 -5.6875 L 3.390625 -18.015625 C 3.390625 -19.171875 3.328125 -20.242188 3.203125 -21.234375 C 3.078125 -22.234375 2.925781 -23.0625 2.75 -23.71875 L 9.25 -23.71875 C 9.070312 -23.007812 8.925781 -22.195312 8.8125 -21.28125 C 8.695312 -20.375 8.640625 -19.351562 8.640625 -18.21875 L 8.640625 -14.09375 L 23.4375 -14.09375 L 23.4375 -18.21875 C 23.4375 -19.375 23.378906 -20.414062 23.265625 -21.34375 C 23.160156 -22.269531 23.015625 -23.0625 22.828125 -23.71875 L 29.328125 -23.71875 C 29.148438 -23.0625 29.003906 -22.234375 28.890625 -21.234375 C 28.773438 -20.242188 28.71875 -19.171875 28.71875 -18.015625 L 28.71875 -5.6875 C 28.71875 -4.539062 28.769531 -3.46875 28.875 -2.46875 C 28.976562 -1.476562 29.128906 -0.65625 29.328125 0 L 22.828125 0 C 23.015625 -0.65625 23.160156 -1.445312 23.265625 -2.375 C 23.378906 -3.300781 23.4375 -4.335938 23.4375 -5.484375 L 23.4375 -9.6875 L 8.640625 -9.6875 L 8.640625 -5.484375 C 8.640625 -4.378906 8.679688 -3.367188 8.765625 -2.453125 C 8.859375 -1.535156 9.019531 -0.71875 9.25 0 Z M 2.75 0 "/></g></g></g><g fill="#fbfbfb" fill-opacity="1"><g transform="translate(73.767806, 85.762792)"><g><path d="M 13.71875 0.46875 C 11.300781 0.46875 9.171875 0.0976562 7.328125 -0.640625 C 5.492188 -1.390625 4.054688 -2.4375 3.015625 -3.78125 C 1.972656 -5.125 1.453125 -6.6875 1.453125 -8.46875 C 1.453125 -10.226562 1.953125 -11.78125 2.953125 -13.125 C 3.960938 -14.46875 5.359375 -15.515625 7.140625 -16.265625 C 8.929688 -17.023438 10.976562 -17.40625 13.28125 -17.40625 C 15.488281 -17.40625 17.375 -17.140625 18.9375 -16.609375 C 20.5 -16.078125 21.6875 -15.359375 22.5 -14.453125 C 23.3125 -13.554688 23.71875 -12.566406 23.71875 -11.484375 C 23.71875 -10.328125 23.347656 -9.378906 22.609375 -8.640625 C 21.878906 -7.910156 20.851562 -7.375 19.53125 -7.03125 C 18.207031 -6.695312 16.675781 -6.53125 14.9375 -6.53125 C 13.21875 -6.53125 11.65625 -6.707031 10.25 -7.0625 C 8.851562 -7.414062 7.546875 -7.882812 6.328125 -8.46875 L 6.125 -8.296875 C 6.238281 -7.148438 6.710938 -6.164062 7.546875 -5.34375 C 8.390625 -4.53125 9.457031 -3.90625 10.75 -3.46875 C 12.050781 -3.03125 13.425781 -2.8125 14.875 -2.8125 C 16.519531 -2.8125 18.101562 -3.007812 19.625 -3.40625 C 21.15625 -3.800781 22.367188 -4.367188 23.265625 -5.109375 L 23.375 -1.453125 C 22.695312 -1.046875 21.820312 -0.695312 20.75 -0.40625 C 19.675781 -0.113281 18.523438 0.101562 17.296875 0.25 C 16.066406 0.394531 14.875 0.46875 13.71875 0.46875 Z M 13.578125 -8.984375 C 14.578125 -8.984375 15.484375 -9.0625 16.296875 -9.21875 C 17.109375 -9.375 17.753906 -9.628906 18.234375 -9.984375 C 18.722656 -10.347656 18.96875 -10.835938 18.96875 -11.453125 C 18.96875 -12.171875 18.472656 -12.820312 17.484375 -13.40625 C 16.503906 -14 15.082031 -14.296875 13.21875 -14.296875 C 12.175781 -14.296875 11.148438 -14.140625 10.140625 -13.828125 C 9.140625 -13.523438 8.28125 -13.085938 7.5625 -12.515625 C 6.851562 -11.941406 6.398438 -11.25 6.203125 -10.4375 C 7.191406 -10.007812 8.332031 -9.660156 9.625 -9.390625 C 10.925781 -9.117188 12.242188 -8.984375 13.578125 -8.984375 Z M 13.578125 -8.984375 "/></g></g></g><g fill="#fbfbfb" fill-opacity="1"><g transform="translate(98.833114, 85.762792)"><g><path d="M 2.46875 0 C 2.65625 -0.65625 2.796875 -1.335938 2.890625 -2.046875 C 2.992188 -2.753906 3.046875 -3.675781 3.046875 -4.8125 L 3.046875 -11.890625 C 3.046875 -13.046875 2.992188 -14.003906 2.890625 -14.765625 C 2.796875 -15.535156 2.65625 -16.257812 2.46875 -16.9375 L 9.046875 -16.9375 C 8.816406 -16.53125 8.617188 -15.976562 8.453125 -15.28125 C 8.285156 -14.582031 8.203125 -13.878906 8.203125 -13.171875 L 8.203125 -11.6875 L 8.5 -11.6875 C 8.925781 -13.519531 9.765625 -14.929688 11.015625 -15.921875 C 12.273438 -16.910156 13.753906 -17.40625 15.453125 -17.40625 C 16.035156 -17.40625 16.648438 -17.347656 17.296875 -17.234375 C 17.941406 -17.128906 18.453125 -16.984375 18.828125 -16.796875 L 18.828125 -12.1875 C 18.453125 -12.570312 17.867188 -12.890625 17.078125 -13.140625 C 16.285156 -13.390625 15.492188 -13.515625 14.703125 -13.515625 C 13.660156 -13.515625 12.632812 -13.253906 11.625 -12.734375 C 10.625 -12.210938 9.796875 -11.5 9.140625 -10.59375 C 8.484375 -9.695312 8.15625 -8.679688 8.15625 -7.546875 L 8.15625 -3.765625 C 8.15625 -2.953125 8.207031 -2.25 8.3125 -1.65625 C 8.414062 -1.070312 8.582031 -0.519531 8.8125 0 Z M 2.46875 0 "/></g></g></g><g fill="#fbfbfb" fill-opacity="1"><g transform="translate(118.546637, 85.762792)"><g><path d="M 17.046875 0.46875 C 15.003906 0.46875 13.242188 0.015625 11.765625 -0.890625 C 10.285156 -1.804688 9.222656 -2.988281 8.578125 -4.4375 L 8.203125 -4.4375 L 8.203125 -3.859375 C 8.203125 -3.160156 8.265625 -2.472656 8.390625 -1.796875 C 8.515625 -1.117188 8.675781 -0.519531 8.875 0 L 2.46875 0 C 2.675781 -0.8125 2.828125 -1.765625 2.921875 -2.859375 C 3.023438 -3.953125 3.078125 -5.066406 3.078125 -6.203125 L 3.078125 -18.0625 C 3.078125 -19.207031 3.023438 -20.269531 2.921875 -21.25 C 2.828125 -22.238281 2.675781 -23.0625 2.46875 -23.71875 L 8.84375 -23.71875 C 8.414062 -22.3125 8.203125 -20.425781 8.203125 -18.0625 L 8.203125 -12.53125 L 8.578125 -12.53125 C 9.253906 -14.019531 10.332031 -15.203125 11.8125 -16.078125 C 13.289062 -16.960938 15.035156 -17.40625 17.046875 -17.40625 C 18.984375 -17.40625 20.660156 -17.023438 22.078125 -16.265625 C 23.503906 -15.515625 24.613281 -14.46875 25.40625 -13.125 C 26.195312 -11.78125 26.59375 -10.226562 26.59375 -8.46875 C 26.59375 -6.707031 26.195312 -5.15625 25.40625 -3.8125 C 24.613281 -2.46875 23.503906 -1.414062 22.078125 -0.65625 C 20.660156 0.09375 18.984375 0.46875 17.046875 0.46875 Z M 15 -3.390625 C 16.3125 -3.390625 17.46875 -3.601562 18.46875 -4.03125 C 19.476562 -4.457031 20.269531 -5.054688 20.84375 -5.828125 C 21.425781 -6.597656 21.71875 -7.476562 21.71875 -8.46875 C 21.71875 -9.488281 21.425781 -10.378906 20.84375 -11.140625 C 20.269531 -11.910156 19.476562 -12.507812 18.46875 -12.9375 C 17.46875 -13.363281 16.3125 -13.578125 15 -13.578125 C 13.738281 -13.578125 12.601562 -13.359375 11.59375 -12.921875 C 10.59375 -12.484375 9.800781 -11.878906 9.21875 -11.109375 C 8.644531 -10.335938 8.359375 -9.457031 8.359375 -8.46875 C 8.359375 -7.5625 8.644531 -6.722656 9.21875 -5.953125 C 9.800781 -5.191406 10.59375 -4.570312 11.59375 -4.09375 C 12.601562 -3.625 13.738281 -3.390625 15 -3.390625 Z M 15 -3.390625 "/></g></g></g><g fill="#fbfbfb" fill-opacity="1"><g transform="translate(146.45719, 85.762792)"><g><path d="M 14.703125 0.46875 C 13.347656 0.46875 11.863281 0.363281 10.25 0.15625 C 8.632812 -0.0390625 7.039062 -0.316406 5.46875 -0.671875 C 3.894531 -1.035156 2.488281 -1.457031 1.25 -1.9375 L 1.484375 -7.3125 C 3.273438 -6.1875 5.296875 -5.347656 7.546875 -4.796875 C 9.804688 -4.242188 12.15625 -3.96875 14.59375 -3.96875 C 16.738281 -3.96875 18.484375 -4.175781 19.828125 -4.59375 C 21.171875 -5.007812 21.84375 -5.738281 21.84375 -6.78125 C 21.84375 -7.382812 21.5625 -7.875 21 -8.25 C 20.4375 -8.625 19.675781 -8.914062 18.71875 -9.125 C 17.757812 -9.34375 16.679688 -9.523438 15.484375 -9.671875 C 14.285156 -9.816406 13.050781 -9.976562 11.78125 -10.15625 C 10.519531 -10.34375 9.289062 -10.585938 8.09375 -10.890625 C 6.894531 -11.191406 5.816406 -11.601562 4.859375 -12.125 C 3.898438 -12.644531 3.140625 -13.316406 2.578125 -14.140625 C 2.015625 -14.960938 1.734375 -15.984375 1.734375 -17.203125 C 1.734375 -18.742188 2.289062 -20.023438 3.40625 -21.046875 C 4.519531 -22.078125 6.023438 -22.859375 7.921875 -23.390625 C 9.816406 -23.921875 11.90625 -24.1875 14.1875 -24.1875 C 15.476562 -24.1875 16.785156 -24.109375 18.109375 -23.953125 C 19.429688 -23.796875 20.679688 -23.570312 21.859375 -23.28125 C 23.046875 -23 24.082031 -22.671875 24.96875 -22.296875 L 24.96875 -17.28125 C 23.726562 -18 22.15625 -18.582031 20.25 -19.03125 C 18.351562 -19.488281 16.398438 -19.71875 14.390625 -19.71875 C 13.128906 -19.71875 11.945312 -19.644531 10.84375 -19.5 C 9.738281 -19.351562 8.851562 -19.09375 8.1875 -18.71875 C 7.519531 -18.34375 7.1875 -17.816406 7.1875 -17.140625 C 7.1875 -16.503906 7.46875 -15.992188 8.03125 -15.609375 C 8.59375 -15.234375 9.351562 -14.9375 10.3125 -14.71875 C 11.269531 -14.5 12.347656 -14.3125 13.546875 -14.15625 C 14.742188 -14 15.976562 -13.835938 17.25 -13.671875 C 18.53125 -13.503906 19.769531 -13.269531 20.96875 -12.96875 C 22.164062 -12.675781 23.242188 -12.28125 24.203125 -11.78125 C 25.160156 -11.289062 25.921875 -10.644531 26.484375 -9.84375 C 27.054688 -9.039062 27.34375 -8.03125 27.34375 -6.8125 C 27.34375 -5.300781 26.820312 -4 25.78125 -2.90625 C 24.738281 -1.820312 23.273438 -0.988281 21.390625 -0.40625 C 19.503906 0.175781 17.273438 0.46875 14.703125 0.46875 Z M 14.703125 0.46875 "/></g></g></g><g fill="#fbfbfb" fill-opacity="1"><g transform="translate(175.112929, 85.762792)"><g><path d="M 2.46875 6.78125 C 2.675781 6.125 2.828125 5.300781 2.921875 4.3125 C 3.023438 3.332031 3.078125 2.269531 3.078125 1.125 L 3.078125 -10.765625 C 3.078125 -11.898438 3.023438 -13.015625 2.921875 -14.109375 C 2.828125 -15.203125 2.675781 -16.144531 2.46875 -16.9375 L 8.875 -16.9375 C 8.695312 -16.4375 8.546875 -15.84375 8.421875 -15.15625 C 8.296875 -14.46875 8.234375 -13.785156 8.234375 -13.109375 L 8.234375 -12.53125 L 8.578125 -12.53125 C 9.222656 -14 10.28125 -15.175781 11.75 -16.0625 C 13.21875 -16.957031 14.96875 -17.40625 17 -17.40625 C 18.945312 -17.40625 20.632812 -17.023438 22.0625 -16.265625 C 23.5 -15.515625 24.613281 -14.46875 25.40625 -13.125 C 26.195312 -11.78125 26.59375 -10.226562 26.59375 -8.46875 C 26.59375 -6.707031 26.195312 -5.15625 25.40625 -3.8125 C 24.613281 -2.46875 23.5 -1.414062 22.0625 -0.65625 C 20.632812 0.09375 18.945312 0.46875 17 0.46875 C 14.988281 0.46875 13.25 0.0234375 11.78125 -0.859375 C 10.320312 -1.753906 9.253906 -2.9375 8.578125 -4.40625 L 8.234375 -4.40625 L 8.234375 1.125 C 8.234375 2.269531 8.289062 3.332031 8.40625 4.3125 C 8.519531 5.300781 8.664062 6.125 8.84375 6.78125 Z M 15 -3.390625 C 16.3125 -3.390625 17.46875 -3.601562 18.46875 -4.03125 C 19.476562 -4.457031 20.269531 -5.054688 20.84375 -5.828125 C 21.425781 -6.597656 21.71875 -7.476562 21.71875 -8.46875 C 21.71875 -9.488281 21.425781 -10.378906 20.84375 -11.140625 C 20.269531 -11.910156 19.476562 -12.507812 18.46875 -12.9375 C 17.46875 -13.363281 16.3125 -13.578125 15 -13.578125 C 13.738281 -13.578125 12.601562 -13.359375 11.59375 -12.921875 C 10.59375 -12.484375 9.800781 -11.878906 9.21875 -11.109375 C 8.644531 -10.335938 8.359375 -9.457031 8.359375 -8.46875 C 8.359375 -7.5625 8.644531 -6.722656 9.21875 -5.953125 C 9.800781 -5.191406 10.59375 -4.570312 11.59375 -4.09375 C 12.601562 -3.625 13.738281 -3.390625 15 -3.390625 Z M 15 -3.390625 "/></g></g></g><g fill="#fbfbfb" fill-opacity="1"><g transform="translate(202.921863, 85.762792)"><g><path d="M 2.46875 0 C 2.675781 -0.675781 2.828125 -1.441406 2.921875 -2.296875 C 3.023438 -3.160156 3.078125 -4.164062 3.078125 -5.3125 L 3.078125 -18.390625 C 3.078125 -19.546875 3.023438 -20.554688 2.921875 -21.421875 C 2.828125 -22.296875 2.675781 -23.0625 2.46875 -23.71875 L 8.84375 -23.71875 C 8.632812 -23.0625 8.476562 -22.296875 8.375 -21.421875 C 8.28125 -20.554688 8.234375 -19.546875 8.234375 -18.390625 L 8.234375 -12.359375 L 8.53125 -12.359375 C 9.144531 -14.078125 10.171875 -15.347656 11.609375 -16.171875 C 13.054688 -16.992188 14.640625 -17.40625 16.359375 -17.40625 C 19.066406 -17.40625 21.148438 -16.71875 22.609375 -15.34375 C 24.066406 -13.96875 24.796875 -12.09375 24.796875 -9.71875 L 24.796875 -5.15625 C 24.796875 -4.019531 24.84375 -3.046875 24.9375 -2.234375 C 25.039062 -1.421875 25.195312 -0.675781 25.40625 0 L 19.078125 0 C 19.253906 -0.675781 19.398438 -1.382812 19.515625 -2.125 C 19.628906 -2.875 19.6875 -3.816406 19.6875 -4.953125 L 19.6875 -8.640625 C 19.6875 -10.222656 19.203125 -11.453125 18.234375 -12.328125 C 17.273438 -13.210938 15.984375 -13.65625 14.359375 -13.65625 C 13.273438 -13.65625 12.265625 -13.398438 11.328125 -12.890625 C 10.390625 -12.378906 9.632812 -11.6875 9.0625 -10.8125 C 8.488281 -9.945312 8.203125 -8.984375 8.203125 -7.921875 L 8.234375 -4.953125 C 8.234375 -3.972656 8.273438 -3.054688 8.359375 -2.203125 C 8.453125 -1.347656 8.613281 -0.613281 8.84375 0 Z M 2.46875 0 "/></g></g></g><g fill="#fbfbfb" fill-opacity="1"><g transform="translate(230.561439, 85.762792)"><g><path d="M 13.71875 0.46875 C 11.300781 0.46875 9.171875 0.0976562 7.328125 -0.640625 C 5.492188 -1.390625 4.054688 -2.4375 3.015625 -3.78125 C 1.972656 -5.125 1.453125 -6.6875 1.453125 -8.46875 C 1.453125 -10.226562 1.953125 -11.78125 2.953125 -13.125 C 3.960938 -14.46875 5.359375 -15.515625 7.140625 -16.265625 C 8.929688 -17.023438 10.976562 -17.40625 13.28125 -17.40625 C 15.488281 -17.40625 17.375 -17.140625 18.9375 -16.609375 C 20.5 -16.078125 21.6875 -15.359375 22.5 -14.453125 C 23.3125 -13.554688 23.71875 -12.566406 23.71875 -11.484375 C 23.71875 -10.328125 23.347656 -9.378906 22.609375 -8.640625 C 21.878906 -7.910156 20.851562 -7.375 19.53125 -7.03125 C 18.207031 -6.695312 16.675781 -6.53125 14.9375 -6.53125 C 13.21875 -6.53125 11.65625 -6.707031 10.25 -7.0625 C 8.851562 -7.414062 7.546875 -7.882812 6.328125 -8.46875 L 6.125 -8.296875 C 6.238281 -7.148438 6.710938 -6.164062 7.546875 -5.34375 C 8.390625 -4.53125 9.457031 -3.90625 10.75 -3.46875 C 12.050781 -3.03125 13.425781 -2.8125 14.875 -2.8125 C 16.519531 -2.8125 18.101562 -3.007812 19.625 -3.40625 C 21.15625 -3.800781 22.367188 -4.367188 23.265625 -5.109375 L 23.375 -1.453125 C 22.695312 -1.046875 21.820312 -0.695312 20.75 -0.40625 C 19.675781 -0.113281 18.523438 0.101562 17.296875 0.25 C 16.066406 0.394531 14.875 0.46875 13.71875 0.46875 Z M 13.578125 -8.984375 C 14.578125 -8.984375 15.484375 -9.0625 16.296875 -9.21875 C 17.109375 -9.375 17.753906 -9.628906 18.234375 -9.984375 C 18.722656 -10.347656 18.96875 -10.835938 18.96875 -11.453125 C 18.96875 -12.171875 18.472656 -12.820312 17.484375 -13.40625 C 16.503906 -14 15.082031 -14.296875 13.21875 -14.296875 C 12.175781 -14.296875 11.148438 -14.140625 10.140625 -13.828125 C 9.140625 -13.523438 8.28125 -13.085938 7.5625 -12.515625 C 6.851562 -11.941406 6.398438 -11.25 6.203125 -10.4375 C 7.191406 -10.007812 8.332031 -9.660156 9.625 -9.390625 C 10.925781 -9.117188 12.242188 -8.984375 13.578125 -8.984375 Z M 13.578125 -8.984375 "/></g></g></g><g fill="#fbfbfb" fill-opacity="1"><g transform="translate(255.626735, 85.762792)"><g><path d="M 2.46875 0 C 2.65625 -0.65625 2.796875 -1.335938 2.890625 -2.046875 C 2.992188 -2.753906 3.046875 -3.675781 3.046875 -4.8125 L 3.046875 -11.890625 C 3.046875 -13.046875 2.992188 -14.003906 2.890625 -14.765625 C 2.796875 -15.535156 2.65625 -16.257812 2.46875 -16.9375 L 9.046875 -16.9375 C 8.816406 -16.53125 8.617188 -15.976562 8.453125 -15.28125 C 8.285156 -14.582031 8.203125 -13.878906 8.203125 -13.171875 L 8.203125 -11.6875 L 8.5 -11.6875 C 8.925781 -13.519531 9.765625 -14.929688 11.015625 -15.921875 C 12.273438 -16.910156 13.753906 -17.40625 15.453125 -17.40625 C 16.035156 -17.40625 16.648438 -17.347656 17.296875 -17.234375 C 17.941406 -17.128906 18.453125 -16.984375 18.828125 -16.796875 L 18.828125 -12.1875 C 18.453125 -12.570312 17.867188 -12.890625 17.078125 -13.140625 C 16.285156 -13.390625 15.492188 -13.515625 14.703125 -13.515625 C 13.660156 -13.515625 12.632812 -13.253906 11.625 -12.734375 C 10.625 -12.210938 9.796875 -11.5 9.140625 -10.59375 C 8.484375 -9.695312 8.15625 -8.679688 8.15625 -7.546875 L 8.15625 -3.765625 C 8.15625 -2.953125 8.207031 -2.25 8.3125 -1.65625 C 8.414062 -1.070312 8.582031 -0.519531 8.8125 0 Z M 2.46875 0 "/></g></g></g><g fill="#fbfbfb" fill-opacity="1"><g transform="translate(274.798284, 85.762792)"><g><path d="M 13.71875 0.46875 C 11.300781 0.46875 9.171875 0.0976562 7.328125 -0.640625 C 5.492188 -1.390625 4.054688 -2.4375 3.015625 -3.78125 C 1.972656 -5.125 1.453125 -6.6875 1.453125 -8.46875 C 1.453125 -10.226562 1.953125 -11.78125 2.953125 -13.125 C 3.960938 -14.46875 5.359375 -15.515625 7.140625 -16.265625 C 8.929688 -17.023438 10.976562 -17.40625 13.28125 -17.40625 C 15.488281 -17.40625 17.375 -17.140625 18.9375 -16.609375 C 20.5 -16.078125 21.6875 -15.359375 22.5 -14.453125 C 23.3125 -13.554688 23.71875 -12.566406 23.71875 -11.484375 C 23.71875 -10.328125 23.347656 -9.378906 22.609375 -8.640625 C 21.878906 -7.910156 20.851562 -7.375 19.53125 -7.03125 C 18.207031 -6.695312 16.675781 -6.53125 14.9375 -6.53125 C 13.21875 -6.53125 11.65625 -6.707031 10.25 -7.0625 C 8.851562 -7.414062 7.546875 -7.882812 6.328125 -8.46875 L 6.125 -8.296875 C 6.238281 -7.148438 6.710938 -6.164062 7.546875 -5.34375 C 8.390625 -4.53125 9.457031 -3.90625 10.75 -3.46875 C 12.050781 -3.03125 13.425781 -2.8125 14.875 -2.8125 C 16.519531 -2.8125 18.101562 -3.007812 19.625 -3.40625 C 21.15625 -3.800781 22.367188 -4.367188 23.265625 -5.109375 L 23.375 -1.453125 C 22.695312 -1.046875 21.820312 -0.695312 20.75 -0.40625 C 19.675781 -0.113281 18.523438 0.101562 17.296875 0.25 C 16.066406 0.394531 14.875 0.46875 13.71875 0.46875 Z M 13.578125 -8.984375 C 14.578125 -8.984375 15.484375 -9.0625 16.296875 -9.21875 C 17.109375 -9.375 17.753906 -9.628906 18.234375 -9.984375 C 18.722656 -10.347656 18.96875 -10.835938 18.96875 -11.453125 C 18.96875 -12.171875 18.472656 -12.820312 17.484375 -13.40625 C 16.503906 -14 15.082031 -14.296875 13.21875 -14.296875 C 12.175781 -14.296875 11.148438 -14.140625 10.140625 -13.828125 C 9.140625 -13.523438 8.28125 -13.085938 7.5625 -12.515625 C 6.851562 -11.941406 6.398438 -11.25 6.203125 -10.4375 C 7.191406 -10.007812 8.332031 -9.660156 9.625 -9.390625 C 10.925781 -9.117188 12.242188 -8.984375 13.578125 -8.984375 Z M 13.578125 -8.984375 "/></g></g></g></svg>